<?xml version="1.0" encoding="utf-8"?>
<svg version="1.1" id="overtone-logo" xmlns="http://www.w3.org/2000/svg" xmlns:xlink="http://www.w3.org/1999/xlink" x="0px"
	 y="0px" viewBox="0 0 81.6 81.6" xml:space="preserve">
<style type="text/css">
	.st0{fill:#0080A3;}
	.st1{fill:#FFFFFF;}
</style>
<path class="st0" d="M40.8,0C18.3,0,0,18.2,0,40.8c0,22.5,18.2,40.8,40.8,40.8c22.5,0,40.8-18.2,40.8-40.8C81.6,18.3,63.3,0,40.8,0z
	 M43.7,64.8v-9.4c6-1.2,10.7-5.9,11.8-12h9.4C63.6,54.6,54.8,63.5,43.7,64.8z M28,40.3c0.2-6.3,4.9-11.4,11-12.2v25.4
	c-6.1-0.9-10.8-6-11-12.2V40.3z M43.7,28.3c5.7,1.3,10,6.4,10,12.5s-4.3,11.2-10,12.5V28.3z M55.6,38.8c-0.9-6.4-5.7-11.4-11.9-12.6
	v-9.4C55.1,18.1,64,27.3,65,38.8H55.6z M59.4,19.7c-4.3-3.8-9.7-6.3-15.7-6.9V5.7c8,0.6,15.2,3.9,20.7,9L59.4,19.7z M39,12.8
	c-6.2,0.4-11.8,2.8-16.2,6.5l-5-5c5.7-5,13.1-8.2,21.2-8.6V12.8z M39,16.7V26c-6.7,0.8-12,6.1-12.9,12.8h-9.3
	C17.7,27,27.1,17.5,39,16.7z M26.2,43.5c1.2,6.4,6.3,11.3,12.8,12.1v9.3C27.4,64,18,55,16.8,43.4L26.2,43.5L26.2,43.5z M23.1,62.6
	c4.4,3.6,9.9,5.8,15.8,6.2v7.1c-7.9-0.4-15.2-3.5-20.8-8.3L23.1,62.6z M43.7,68.7c5.8-0.6,11.2-3,15.4-6.6l5,5
	c-5.5,4.9-12.6,8-20.4,8.7L43.7,68.7L43.7,68.7z M62.3,58.8c3.6-4.2,5.9-9.6,6.4-15.4h7.1c-0.6,7.8-3.7,14.8-8.5,20.4L62.3,58.8z
	 M68.8,38.8c-0.4-5.9-2.7-11.3-6.2-15.7l5-5c4.8,5.6,7.8,12.8,8.3,20.7H68.8z M14.5,17.6l5,5c-3.8,4.4-6.2,10.1-6.6,16.2H5.8
	C6.2,30.7,9.4,23.3,14.5,17.6z M5.8,43.5h7.1c0.6,6.1,3.1,11.6,6.9,15.9l-5,5C9.7,58.7,6.4,51.5,5.8,43.5z"/>
<g>
	<g>
		<path class="st1" d="M67.6,18.1l-5,5c3.5,4.3,5.8,9.8,6.2,15.7h7.1C75.4,30.9,72.4,23.8,67.6,18.1z"/>
		<path class="st1" d="M75.8,43.5h-7.1c-0.5,5.8-2.9,11.1-6.4,15.4l5,5C72.1,58.3,75.2,51.2,75.8,43.5z"/>
		<path class="st1" d="M43.7,75.8c7.8-0.6,14.9-3.8,20.4-8.7l-5-5c-4.2,3.6-9.5,6-15.4,6.6L43.7,75.8L43.7,75.8z"/>
		<path class="st1" d="M64.4,14.8c-5.6-5.1-12.8-8.3-20.7-9v7.1c6,0.6,11.5,3.1,15.7,6.9L64.4,14.8z"/>
		<path class="st1" d="M5.8,38.8h7.1c0.4-6.2,2.9-11.8,6.6-16.2l-5-5C9.4,23.3,6.2,30.7,5.8,38.8z"/>
		<path class="st1" d="M19.8,59.4c-3.8-4.3-6.3-9.8-6.9-15.9H5.8c0.6,8,3.9,15.3,9,20.9L19.8,59.4z"/>
		<path class="st1" d="M22.8,19.3c4.4-3.7,10.1-6.1,16.2-6.5V5.7c-8.1,0.4-15.5,3.6-21.2,8.6L22.8,19.3z"/>
		<path class="st1" d="M18.1,67.6c5.7,4.8,12.9,7.9,20.8,8.3v-7.1c-6-0.4-11.5-2.6-15.8-6.2L18.1,67.6z"/>
	</g>
	<g>
		<path class="st1" d="M43.7,64.8c11.2-1.3,20-10.2,21.2-21.4h-9.4c-1.1,6-5.8,10.8-11.8,12V64.8z"/>
		<path class="st1" d="M43.7,26.1c6.2,1.2,11.1,6.3,11.9,12.6h9.3C64,27.2,55,18,43.6,16.7L43.7,26.1L43.7,26.1z"/>
		<path class="st1" d="M39,55.6c-6.5-0.8-11.7-5.8-12.8-12.1h-9.4C18.1,55,27.4,64.1,39,65L39,55.6L39,55.6z"/>
		<path class="st1" d="M39,16.7C27.2,17.6,17.7,27,16.7,38.8H26c0.9-6.7,6.2-12,12.9-12.8v-9.3H39z"/>
	</g>
	<g>
		<path class="st1" d="M43.7,53.3c5.7-1.3,10-6.4,10-12.5s-4.3-11.2-10-12.5V53.3z"/>
		<path class="st1" d="M39,28.1c-6.1,0.9-10.8,6-11,12.2v0.9c0.2,6.3,4.9,11.4,11,12.2V28.1z"/>
	</g>
</g>
</svg>
